# 3ds Max Wavefront OBJ Exporter v0.97b - (c)2007 guruware
# File Created: 11.12.2017 22:41:59

mtllib cylinder.mtl

#
# object Cylinder001
#

v  -0.9634 -0.7188 -1.5857
v  -1.0014 -0.7188 -1.7770
v  -1.0014 0.7813 -1.7770
v  -0.9634 0.7813 -1.5857
v  -1.1098 -0.7188 -1.9392
v  -1.1098 0.7813 -1.9392
v  -1.2720 -0.7188 -2.0476
v  -1.2720 0.7813 -2.0476
v  -1.4634 -0.7188 -2.0857
v  -1.4634 0.7813 -2.0857
v  -1.6547 -0.7188 -2.0476
v  -1.6547 0.7813 -2.0476
v  -1.8169 -0.7188 -1.9392
v  -1.8169 0.7813 -1.9392
v  -1.9253 -0.7188 -1.7770
v  -1.9253 0.7813 -1.7770
v  -1.9634 -0.7188 -1.5857
v  -1.9634 0.7813 -1.5857
v  -1.9253 -0.7188 -1.3944
v  -1.9253 0.7813 -1.3944
v  -1.8169 -0.7188 -1.2321
v  -1.8169 0.7813 -1.2321
v  -1.6547 -0.7188 -1.1238
v  -1.6547 0.7813 -1.1238
v  -1.4634 -0.7188 -1.0857
v  -1.4634 0.7813 -1.0857
v  -1.2720 -0.7188 -1.1238
v  -1.2720 0.7813 -1.1238
v  -1.1098 -0.7188 -1.2321
v  -1.1098 0.7813 -1.2321
v  -1.0014 -0.7188 -1.3944
v  -1.0014 0.7813 -1.3944
v  -1.2134 -0.7188 -1.5857
v  -1.2324 -0.7188 -1.6814
v  -1.2866 -0.7188 -1.7625
v  -1.3677 -0.7188 -1.8167
v  -1.4634 -0.7188 -1.8357
v  -1.5590 -0.7188 -1.8167
v  -1.6402 -0.7188 -1.7625
v  -1.6943 -0.7188 -1.6814
v  -1.7134 -0.7188 -1.5857
v  -1.6943 -0.7188 -1.4900
v  -1.6402 -0.7188 -1.4089
v  -1.5590 -0.7188 -1.3547
v  -1.4634 -0.7188 -1.3357
v  -1.3677 -0.7188 -1.3547
v  -1.2866 -0.7188 -1.4089
v  -1.2324 -0.7188 -1.4900
v  -1.4634 -0.7188 -1.5857
v  -1.2324 0.7813 -1.6814
v  -1.2134 0.7813 -1.5857
v  -1.2866 0.7813 -1.7625
v  -1.3677 0.7813 -1.8167
v  -1.4634 0.7813 -1.8357
v  -1.5590 0.7813 -1.8167
v  -1.6402 0.7813 -1.7625
v  -1.6943 0.7813 -1.6814
v  -1.7134 0.7813 -1.5857
v  -1.6943 0.7813 -1.4900
v  -1.6402 0.7813 -1.4089
v  -1.5590 0.7813 -1.3547
v  -1.4634 0.7813 -1.3357
v  -1.3677 0.7813 -1.3547
v  -1.2866 0.7813 -1.4089
v  -1.2324 0.7813 -1.4900
v  -1.4634 0.7813 -1.5857
# 66 vertices

vn 1.0000 0.0000 -0.0000
vn 0.9239 0.0000 -0.3827
vn 0.7071 0.0000 -0.7071
vn 0.3827 0.0000 -0.9239
vn 0.0000 0.0000 -1.0000
vn -0.0000 0.0000 -1.0000
vn -0.3827 0.0000 -0.9239
vn -0.7071 0.0000 -0.7071
vn -0.9239 0.0000 -0.3827
vn -1.0000 0.0000 -0.0000
vn -0.9239 0.0000 0.3827
vn -0.7071 0.0000 0.7071
vn -0.3827 0.0000 0.9239
vn 0.0000 0.0000 1.0000
vn 0.3827 0.0000 0.9239
vn 0.7071 0.0000 0.7071
vn 0.9239 0.0000 0.3827
vn 0.0000 -1.0000 -0.0000
vn 0.0000 1.0000 -0.0000
# 19 vertex normals

vt 0.7500 0.0000 1.0000
vt 0.8125 0.0000 1.0000
vt 0.8125 1.0000 1.0000
vt 0.7500 1.0000 1.0000
vt 0.8750 0.0000 1.0000
vt 0.8750 1.0000 1.0000
vt 0.9375 0.0000 1.0000
vt 0.9375 1.0000 1.0000
vt 1.0000 0.0000 1.0000
vt 1.0000 1.0000 1.0000
vt 0.0000 0.0000 1.0000
vt 0.0625 0.0000 1.0000
vt 0.0625 1.0000 1.0000
vt 0.0000 1.0000 1.0000
vt 0.1250 0.0000 1.0000
vt 0.1250 1.0000 1.0000
vt 0.1875 0.0000 1.0000
vt 0.1875 1.0000 1.0000
vt 0.2500 0.0000 1.0000
vt 0.2500 1.0000 1.0000
vt 0.3125 0.0000 1.0000
vt 0.3125 1.0000 1.0000
vt 0.3750 0.0000 1.0000
vt 0.3750 1.0000 1.0000
vt 0.4375 0.0000 1.0000
vt 0.4375 1.0000 1.0000
vt 0.5000 0.0000 1.0000
vt 0.5000 1.0000 1.0000
vt 0.5625 0.0000 1.0000
vt 0.5625 1.0000 1.0000
vt 0.6250 0.0000 1.0000
vt 0.6250 1.0000 1.0000
vt 0.6875 0.0000 1.0000
vt 0.6875 1.0000 1.0000
vt 0.3087 0.9619 -0.2500
vt 0.5000 1.0000 -0.2500
vt 0.5000 0.7500 -0.2500
vt 0.4043 0.7310 -0.2500
vt 0.1464 0.8536 -0.2500
vt 0.3232 0.6768 -0.2500
vt 0.0381 0.6913 -0.2500
vt 0.2690 0.5957 -0.2500
vt 0.0000 0.5000 -0.2500
vt 0.2500 0.5000 -0.2500
vt 0.0381 0.3087 -0.2500
vt 0.2690 0.4043 -0.2500
vt 0.1464 0.1464 -0.2500
vt 0.3232 0.3232 -0.2500
vt 0.3087 0.0381 -0.2500
vt 0.4043 0.2690 -0.2500
vt 0.5000 0.0000 -0.2500
vt 0.5000 0.2500 -0.2500
vt 0.6913 0.0381 -0.2500
vt 0.5957 0.2690 -0.2500
vt 0.8536 0.1464 -0.2500
vt 0.6768 0.3232 -0.2500
vt 0.9619 0.3087 -0.2500
vt 0.7310 0.4043 -0.2500
vt 1.0000 0.5000 -0.2500
vt 0.7500 0.5000 -0.2500
vt 0.9619 0.6913 -0.2500
vt 0.7310 0.5957 -0.2500
vt 0.8536 0.8536 -0.2500
vt 0.6768 0.6768 -0.2500
vt 0.6913 0.9619 -0.2500
vt 0.5957 0.7310 -0.2500
vt 0.5000 0.5000 -0.2500
vt 0.5000 1.0000 0.2500
vt 0.3087 0.9619 0.2500
vt 0.4043 0.7310 0.2500
vt 0.5000 0.7500 0.2500
vt 0.1464 0.8536 0.2500
vt 0.3232 0.6768 0.2500
vt 0.0381 0.6913 0.2500
vt 0.2690 0.5957 0.2500
vt 0.0000 0.5000 0.2500
vt 0.2500 0.5000 0.2500
vt 0.0381 0.3087 0.2500
vt 0.2690 0.4043 0.2500
vt 0.1464 0.1464 0.2500
vt 0.3232 0.3232 0.2500
vt 0.3087 0.0381 0.2500
vt 0.4043 0.2690 0.2500
vt 0.5000 0.0000 0.2500
vt 0.5000 0.2500 0.2500
vt 0.6913 0.0381 0.2500
vt 0.5957 0.2690 0.2500
vt 0.8536 0.1464 0.2500
vt 0.6768 0.3232 0.2500
vt 0.9619 0.3087 0.2500
vt 0.7310 0.4043 0.2500
vt 1.0000 0.5000 0.2500
vt 0.7500 0.5000 0.2500
vt 0.9619 0.6913 0.2500
vt 0.7310 0.5957 0.2500
vt 0.8536 0.8536 0.2500
vt 0.6768 0.6768 0.2500
vt 0.6913 0.9619 0.2500
vt 0.5957 0.7310 0.2500
vt 0.5000 0.5000 0.2500
# 100 texture coords

g Cylinder001
usemtl wire_196088225
s 8
f 1/1/1 2/2/2 3/3/2 
f 3/3/2 4/4/1 1/1/1 
f 2/2/2 5/5/3 6/6/3 
f 6/6/3 3/3/2 2/2/2 
f 5/5/3 7/7/4 8/8/4 
f 8/8/4 6/6/3 5/5/3 
f 7/7/4 9/9/5 10/10/6 
f 10/10/6 8/8/4 7/7/4 
f 9/11/5 11/12/7 12/13/7 
f 12/13/7 10/14/6 9/11/5 
f 11/12/7 13/15/8 14/16/8 
f 14/16/8 12/13/7 11/12/7 
f 13/15/8 15/17/9 16/18/9 
f 16/18/9 14/16/8 13/15/8 
f 15/17/9 17/19/10 18/20/10 
f 18/20/10 16/18/9 15/17/9 
f 17/19/10 19/21/11 20/22/11 
f 20/22/11 18/20/10 17/19/10 
f 19/21/11 21/23/12 22/24/12 
f 22/24/12 20/22/11 19/21/11 
f 21/23/12 23/25/13 24/26/13 
f 24/26/13 22/24/12 21/23/12 
f 23/25/13 25/27/14 26/28/14 
f 26/28/14 24/26/13 23/25/13 
f 25/27/14 27/29/15 28/30/15 
f 28/30/15 26/28/14 25/27/14 
f 27/29/15 29/31/16 30/32/16 
f 30/32/16 28/30/15 27/29/15 
f 29/31/16 31/33/17 32/34/17 
f 32/34/17 30/32/16 29/31/16 
f 31/33/17 1/1/1 4/4/1 
f 4/4/1 32/34/17 31/33/17 
s 1
f 2/35/18 1/36/18 33/37/18 
f 33/37/18 34/38/18 2/35/18 
f 5/39/18 2/35/18 34/38/18 
f 34/38/18 35/40/18 5/39/18 
f 7/41/18 5/39/18 35/40/18 
f 35/40/18 36/42/18 7/41/18 
f 9/43/18 7/41/18 36/42/18 
f 36/42/18 37/44/18 9/43/18 
f 11/45/18 9/43/18 37/44/18 
f 37/44/18 38/46/18 11/45/18 
f 13/47/18 11/45/18 38/46/18 
f 38/46/18 39/48/18 13/47/18 
f 15/49/18 13/47/18 39/48/18 
f 39/48/18 40/50/18 15/49/18 
f 17/51/18 15/49/18 40/50/18 
f 40/50/18 41/52/18 17/51/18 
f 19/53/18 17/51/18 41/52/18 
f 41/52/18 42/54/18 19/53/18 
f 21/55/18 19/53/18 42/54/18 
f 42/54/18 43/56/18 21/55/18 
f 23/57/18 21/55/18 43/56/18 
f 43/56/18 44/58/18 23/57/18 
f 25/59/18 23/57/18 44/58/18 
f 44/58/18 45/60/18 25/59/18 
f 27/61/18 25/59/18 45/60/18 
f 45/60/18 46/62/18 27/61/18 
f 29/63/18 27/61/18 46/62/18 
f 46/62/18 47/64/18 29/63/18 
f 31/65/18 29/63/18 47/64/18 
f 47/64/18 48/66/18 31/65/18 
f 1/36/18 31/65/18 48/66/18 
f 48/66/18 33/37/18 1/36/18 
f 34/38/18 33/37/18 49/67/18 
f 35/40/18 34/38/18 49/67/18 
f 36/42/18 35/40/18 49/67/18 
f 37/44/18 36/42/18 49/67/18 
f 38/46/18 37/44/18 49/67/18 
f 39/48/18 38/46/18 49/67/18 
f 40/50/18 39/48/18 49/67/18 
f 41/52/18 40/50/18 49/67/18 
f 42/54/18 41/52/18 49/67/18 
f 43/56/18 42/54/18 49/67/18 
f 44/58/18 43/56/18 49/67/18 
f 45/60/18 44/58/18 49/67/18 
f 46/62/18 45/60/18 49/67/18 
f 47/64/18 46/62/18 49/67/18 
f 48/66/18 47/64/18 49/67/18 
f 33/37/18 48/66/18 49/67/18 
f 4/68/19 3/69/19 50/70/19 
f 50/70/19 51/71/19 4/68/19 
f 3/69/19 6/72/19 52/73/19 
f 52/73/19 50/70/19 3/69/19 
f 6/72/19 8/74/19 53/75/19 
f 53/75/19 52/73/19 6/72/19 
f 8/74/19 10/76/19 54/77/19 
f 54/77/19 53/75/19 8/74/19 
f 10/76/19 12/78/19 55/79/19 
f 55/79/19 54/77/19 10/76/19 
f 12/78/19 14/80/19 56/81/19 
f 56/81/19 55/79/19 12/78/19 
f 14/80/19 16/82/19 57/83/19 
f 57/83/19 56/81/19 14/80/19 
f 16/82/19 18/84/19 58/85/19 
f 58/85/19 57/83/19 16/82/19 
f 18/84/19 20/86/19 59/87/19 
f 59/87/19 58/85/19 18/84/19 
f 20/86/19 22/88/19 60/89/19 
f 60/89/19 59/87/19 20/86/19 
f 22/88/19 24/90/19 61/91/19 
f 61/91/19 60/89/19 22/88/19 
f 24/90/19 26/92/19 62/93/19 
f 62/93/19 61/91/19 24/90/19 
f 26/92/19 28/94/19 63/95/19 
f 63/95/19 62/93/19 26/92/19 
f 28/94/19 30/96/19 64/97/19 
f 64/97/19 63/95/19 28/94/19 
f 30/96/19 32/98/19 65/99/19 
f 65/99/19 64/97/19 30/96/19 
f 32/98/19 4/68/19 51/71/19 
f 51/71/19 65/99/19 32/98/19 
f 51/71/19 50/70/19 66/100/19 
f 50/70/19 52/73/19 66/100/19 
f 52/73/19 53/75/19 66/100/19 
f 53/75/19 54/77/19 66/100/19 
f 54/77/19 55/79/19 66/100/19 
f 55/79/19 56/81/19 66/100/19 
f 56/81/19 57/83/19 66/100/19 
f 57/83/19 58/85/19 66/100/19 
f 58/85/19 59/87/19 66/100/19 
f 59/87/19 60/89/19 66/100/19 
f 60/89/19 61/91/19 66/100/19 
f 61/91/19 62/93/19 66/100/19 
f 62/93/19 63/95/19 66/100/19 
f 63/95/19 64/97/19 66/100/19 
f 64/97/19 65/99/19 66/100/19 
f 65/99/19 51/71/19 66/100/19 
# 0 polygons - 128 triangles

