# 3ds Max Wavefront OBJ Exporter v0.97b - (c)2007 guruware
# File Created: 11.12.2017 22:36:42

mtllib teapot.mtl

#
# object Teapot001
#

v  0.4225 0.3687 -3.0202
v  0.7877 0.3687 -3.2466
v  0.7867 0.3294 -3.2473
v  0.4224 0.3294 -3.0214
v  0.4286 0.3294 -2.9818
v  0.8190 0.3294 -3.2239
v  0.0053 0.3687 -3.1224
v  0.0060 0.3294 -3.1234
v  -0.0175 0.3294 -3.0911
v  -0.2225 0.3687 -3.4885
v  -0.2308 0.3294 -3.4956
v  -0.2595 0.3294 -3.4814
v  -0.1190 0.3687 -3.9048
v  -0.1180 0.3294 -3.9040
v  -0.1503 0.3294 -3.9275
v  0.2461 0.3687 -4.1312
v  0.2463 0.3294 -4.1300
v  0.2401 0.3294 -4.1695
v  0.6634 0.3687 -4.0290
v  0.6627 0.3294 -4.0280
v  0.6862 0.3294 -4.0603
v  0.8899 0.3687 -3.6639
v  0.8886 0.3294 -3.6637
v  0.9282 0.3294 -3.6700
v  0.4502 0.0187 -2.8457
v  0.9300 0.0187 -3.1432
v  0.4601 -0.2695 -2.7838
v  0.9805 -0.2695 -3.1066
v  -0.0981 0.0187 -2.9800
v  -0.1347 -0.2695 -2.9295
v  -0.3956 0.0187 -3.4598
v  -0.4575 -0.2695 -3.4500
v  -0.2613 0.0187 -4.0081
v  -0.3118 -0.2695 -4.0448
v  0.2184 0.0187 -4.3056
v  0.2086 -0.2695 -4.3675
v  0.7668 0.0187 -4.1714
v  0.8034 -0.2695 -4.2218
v  1.0643 0.0187 -3.6916
v  1.1262 -0.2695 -3.7014
v  0.4444 -0.4753 -2.8828
v  0.8997 -0.4753 -3.1652
v  0.4286 -0.5689 -2.9818
v  0.8190 -0.5689 -3.2239
v  -0.0761 -0.4753 -3.0103
v  -0.0175 -0.5689 -3.0911
v  -0.3585 -0.4753 -3.4657
v  -0.2595 -0.5689 -3.4814
v  -0.2310 -0.4753 -3.9861
v  -0.1503 -0.5689 -3.9275
v  0.2243 -0.4753 -4.2685
v  0.2401 -0.5689 -4.1695
v  0.7448 -0.4753 -4.1411
v  0.6862 -0.5689 -4.0603
v  1.0272 -0.4753 -3.6857
v  0.9282 -0.5689 -3.6700
v  0.4151 -0.6101 -3.0672
v  0.7493 -0.6101 -3.2744
v  0.3343 -0.6288 -3.5757
v  0.0331 -0.6101 -3.1607
v  -0.1742 -0.6101 -3.4949
v  -0.0806 -0.6101 -3.8769
v  0.2536 -0.6101 -4.0842
v  0.6356 -0.6101 -3.9906
v  0.8428 -0.6101 -3.6564
v  -0.5322 0.2077 -4.0937
v  -0.4451 0.1684 -4.1415
v  -0.1826 0.1797 -3.9509
v  -0.2192 0.2246 -3.8665
v  -0.6392 0.0898 -4.1714
v  -0.5380 0.0898 -4.2089
v  -0.5137 0.2470 -4.1913
v  -0.1503 0.2695 -3.9275
v  -0.6349 0.0898 -4.2793
v  -0.4266 0.2077 -4.2391
v  -0.1137 0.2246 -4.0119
v  -0.5337 0.0898 -4.3168
v  -0.5695 -0.1282 -4.1209
v  -0.4855 -0.0898 -4.1708
v  -0.3484 -0.3294 -3.9603
v  -0.5481 -0.1666 -4.2163
v  -0.2795 -0.3893 -4.0213
v  -0.4640 -0.1282 -4.2662
v  -0.2429 -0.3294 -4.1057
v  1.0741 0.0187 -2.8703
v  1.1057 0.0898 -3.0157
v  0.8836 -0.0599 -3.1770
v  0.7675 -0.2246 -3.0170
v  1.2596 0.3294 -2.8115
v  1.2067 0.3294 -2.9424
v  1.2026 -0.0524 -2.9453
v  0.8836 -0.3893 -3.1770
v  1.4005 0.3294 -2.8017
v  1.2342 0.0187 -3.0908
v  0.9997 -0.2246 -3.3369
v  1.3476 0.3294 -2.9326
v  1.3093 0.3560 -2.7939
v  1.2470 0.3518 -2.9131
v  1.2772 0.3294 -2.8357
v  1.2390 0.3294 -2.9190
v  1.4419 0.3602 -2.7716
v  1.3682 0.3294 -2.8251
v  1.3797 0.3560 -2.8908
v  1.3300 0.3294 -2.9084
v  0.3548 0.5614 -3.4468
v  0.4393 0.5614 -3.4994
v  0.3343 0.6288 -3.5757
v  0.3469 0.4491 -3.4965
v  0.3990 0.4491 -3.5288
v  0.2581 0.5614 -3.4707
v  0.2874 0.4491 -3.5111
v  0.2055 0.5614 -3.5552
v  0.2552 0.4491 -3.5631
v  0.2293 0.5614 -3.6519
v  0.2697 0.4491 -3.6226
v  0.3139 0.5614 -3.7045
v  0.3218 0.4491 -3.6549
v  0.4106 0.5614 -3.6807
v  0.3813 0.4491 -3.6403
v  0.4632 0.5614 -3.5961
v  0.4135 0.4491 -3.5882
v  0.3862 0.3893 -3.2490
v  0.6009 0.3893 -3.3822
v  0.4161 0.3294 -3.0610
v  0.7543 0.3294 -3.2708
v  0.1408 0.3893 -3.3091
v  0.0294 0.3294 -3.1557
v  0.0077 0.3893 -3.5238
v  -0.1803 0.3294 -3.4940
v  0.0678 0.3893 -3.7692
v  -0.0857 0.3294 -3.8806
v  0.2825 0.3893 -3.9023
v  0.2526 0.3294 -4.0904
v  0.5278 0.3893 -3.8422
v  0.6392 0.3294 -3.9957
v  0.6610 0.3893 -3.6275
v  0.8490 0.3294 -3.6574
# 137 vertices

vn -0.0214 0.9906 -0.1349
vn -0.1146 0.9899 -0.0832
vn -0.8088 0.0317 -0.5872
vn -0.1567 0.0319 -0.9871
vn 0.1316 0.5435 0.8290
vn 0.6798 0.5425 0.4935
vn 0.0828 0.9899 -0.1154
vn 0.5864 0.0283 -0.8095
vn -0.4935 0.5425 0.6798
vn 0.1932 0.9729 -0.1273
vn 0.9780 -0.1773 -0.1100
vn -0.8322 0.5381 0.1337
vn 0.1132 0.9886 0.0988
vn 0.8000 0.0317 0.5991
vn -0.6797 0.5422 -0.4940
vn 0.0214 0.9906 0.1349
vn 0.1567 0.0319 0.9871
vn -0.1316 0.5435 -0.8290
vn -0.0832 0.9899 0.1146
vn -0.5872 0.0317 0.8088
vn 0.4935 0.5425 -0.6798
vn -0.1349 0.9906 0.0214
vn -0.9871 0.0319 0.1567
vn 0.8290 0.5435 -0.1316
vn 0.1494 0.3034 0.9411
vn 0.7713 0.3025 0.5600
vn 0.1558 -0.1107 0.9816
vn 0.8043 -0.1105 0.5839
vn -0.5600 0.3025 0.7713
vn -0.5839 -0.1105 0.8043
vn -0.9411 0.3034 0.1494
vn -0.9816 -0.1107 0.1558
vn -0.7713 0.3025 -0.5600
vn -0.8043 -0.1105 -0.5839
vn -0.1494 0.3034 -0.9411
vn -0.1558 -0.1107 -0.9816
vn 0.5600 0.3025 -0.7713
vn 0.5839 -0.1105 -0.8043
vn 0.9411 0.3034 -0.1494
vn 0.9816 -0.1107 -0.1558
vn 0.1285 -0.5735 0.8090
vn 0.6634 -0.5726 0.4816
vn 0.0922 -0.8089 0.5806
vn 0.4765 -0.8083 0.3459
vn -0.4816 -0.5726 0.6634
vn -0.3459 -0.8083 0.4765
vn -0.8090 -0.5735 0.1285
vn -0.5806 -0.8089 0.0922
vn -0.6634 -0.5726 -0.4816
vn -0.4765 -0.8083 -0.3459
vn -0.1285 -0.5735 -0.8090
vn -0.0922 -0.8089 -0.5806
vn 0.4816 -0.5726 -0.6634
vn 0.3459 -0.8083 -0.4765
vn 0.8090 -0.5735 -0.1285
vn 0.5806 -0.8089 -0.0922
vn 0.0447 -0.9585 0.2816
vn 0.2306 -0.9585 0.1674
vn 0.0000 -1.0000 -0.0000
vn -0.1674 -0.9585 0.2306
vn -0.2816 -0.9585 0.0447
vn -0.2306 -0.9585 -0.1674
vn -0.0447 -0.9585 -0.2816
vn 0.1674 -0.9585 -0.2306
vn 0.2816 -0.9585 -0.0447
vn -0.5903 0.2047 0.7808
vn 0.2365 -0.9594 0.1538
vn 0.0329 -0.9993 0.0201
vn -0.5798 0.2727 0.7677
vn -0.7944 0.1264 0.5941
vn 0.7793 -0.3590 0.5136
vn -0.3652 0.8969 -0.2495
vn -0.0391 0.9989 -0.0266
vn -0.8041 0.1669 -0.5706
vn 0.5702 0.1786 -0.8019
vn 0.5515 0.2685 -0.7898
vn 0.3406 0.1013 -0.9347
vn -0.6786 -0.0998 0.7277
vn 0.6698 0.5756 0.4692
vn -0.7381 -0.5061 0.4461
vn 0.5203 0.7828 0.3413
vn -0.6316 -0.6322 -0.4488
vn -0.4666 -0.8208 -0.3294
vn 0.4965 -0.0889 -0.8635
vn 0.2382 -0.4869 -0.8404
vn -0.4507 0.0246 0.8923
vn -0.5779 0.7167 -0.3903
vn -0.3891 0.8738 -0.2916
vn -0.2725 -0.2382 0.9322
vn -0.5481 0.3812 0.7444
vn -0.6184 0.6881 -0.3795
vn 0.6314 -0.6406 0.4370
vn 0.5305 -0.7567 0.3821
vn 0.5495 -0.7616 0.3436
vn 0.7267 0.0081 -0.6869
vn 0.8135 -0.2343 -0.5323
vn 0.5976 0.3154 -0.7371
vn -0.1543 0.7793 0.6073
vn -0.0078 0.9967 0.0814
vn 0.8123 -0.0454 -0.5814
vn 0.7213 -0.4334 0.5403
vn 0.7933 0.2997 0.5300
vn -0.2586 0.9468 -0.1917
vn 0.6355 0.7294 -0.2532
vn -0.2736 -0.1174 0.9547
vn 0.1503 0.2871 0.9460
vn 0.7748 0.2882 0.5626
vn 0.0000 1.0000 -0.0000
vn 0.1323 0.5396 0.8315
vn 0.6825 0.5370 0.4958
vn -0.5626 0.2882 0.7748
vn -0.4958 0.5370 0.6825
vn -0.9460 0.2871 0.1503
vn -0.8315 0.5396 0.1323
vn -0.7748 0.2882 -0.5626
vn -0.6825 0.5370 -0.4958
vn -0.1503 0.2871 -0.9460
vn -0.1323 0.5396 -0.8315
vn 0.5626 0.2882 -0.7748
vn 0.4958 0.5370 -0.6825
vn 0.9460 0.2871 -0.1503
vn 0.8315 0.5396 -0.1323
vn 0.0431 0.9616 0.2712
vn 0.2229 0.9613 0.1618
vn 0.0470 0.9539 0.2963
vn 0.2437 0.9536 0.1769
vn -0.1618 0.9613 0.2229
vn -0.1769 0.9536 0.2437
vn -0.2712 0.9616 0.0431
vn -0.2963 0.9539 0.0470
vn -0.2229 0.9613 -0.1618
vn -0.2437 0.9536 -0.1769
vn -0.0431 0.9616 -0.2712
vn -0.0470 0.9539 -0.2963
vn 0.1618 0.9613 -0.2229
vn 0.1769 0.9536 -0.2437
vn 0.2712 0.9616 -0.0431
vn 0.2963 0.9539 -0.0470
# 138 vertex normals

vt 1.5000 1.9500 0.0000
vt 2.0000 1.9500 0.0000
vt 2.0000 2.0000 0.0000
vt 1.5000 2.0000 0.0000
vt 1.5000 1.9000 0.0000
vt 2.0000 1.9000 0.0000
vt 1.0000 1.9500 0.0000
vt 1.0000 2.0000 0.0000
vt 1.0000 1.9000 0.0000
vt 0.5000 1.9500 0.0000
vt 0.5000 2.0000 0.0000
vt 0.5000 1.9000 0.0000
vt 0.0000 1.9500 0.0000
vt 0.0000 2.0000 0.0000
vt 0.0000 1.9000 0.0000
vt 1.5000 1.4500 0.0000
vt 2.0000 1.4500 0.0000
vt 1.5000 1.0000 0.0000
vt 2.0000 1.0000 0.0000
vt 1.0000 1.4500 0.0000
vt 1.0000 1.0000 0.0000
vt 0.5000 1.4500 0.0000
vt 0.5000 1.0000 0.0000
vt 0.0000 1.4500 0.0000
vt 0.0000 1.0000 0.0000
vt 1.5000 0.7000 0.0000
vt 2.0000 0.7000 0.0000
vt 1.5000 0.4000 0.0000
vt 2.0000 0.4000 0.0000
vt 1.0000 0.7000 0.0000
vt 1.0000 0.4000 0.0000
vt 0.5000 0.7000 0.0000
vt 0.5000 0.4000 0.0000
vt 0.0000 0.7000 0.0000
vt 0.0000 0.4000 0.0000
vt 1.5000 0.2000 0.0000
vt 2.0000 0.2000 0.0000
vt 1.5000 0.0000 0.0000
vt 1.0000 0.2000 0.0000
vt 1.0000 0.0000 0.0000
vt 0.5000 0.2000 0.0000
vt 0.5000 0.0000 0.0000
vt 0.0000 0.2000 0.0000
vt 0.0000 0.0000 0.0000
vt 0.7500 0.7500 0.0000
vt 1.0000 0.7500 0.0000
vt 0.7500 1.0000 0.0000
vt 0.7500 0.5000 0.0000
vt 1.0000 0.5000 0.0000
vt 0.5000 0.7500 0.0000
vt 0.5000 0.5000 0.0000
vt 0.2500 0.7500 0.0000
vt 0.2500 1.0000 0.0000
vt 0.2500 0.5000 0.0000
vt 0.0000 0.7500 0.0000
vt 0.0000 0.5000 0.0000
vt 0.7500 0.2500 0.0000
vt 1.0000 0.2500 0.0000
vt 0.7500 0.0000 0.0000
vt 0.5000 0.2500 0.0000
vt 0.2500 0.2500 0.0000
vt 0.2500 0.0000 0.0000
vt 0.0000 0.2500 0.0000
vt 0.7500 0.4500 0.0000
vt 0.5000 0.4500 0.0000
vt 0.7500 0.9000 0.0000
vt 0.5000 0.9000 0.0000
vt 1.0000 0.4500 0.0000
vt 1.0000 0.9000 0.0000
vt 0.2500 0.4500 0.0000
vt 0.0000 0.4500 0.0000
vt 0.2500 0.9000 0.0000
vt 0.0000 0.9000 0.0000
vt 0.7500 0.9500 0.0000
vt 0.5000 0.9500 0.0000
vt 1.0000 0.9500 0.0000
vt 0.2500 0.9500 0.0000
vt 0.0000 0.9500 0.0000
# 78 texture coords

g Teapot001
usemtl wire_028089177
s 1
f 1/1/1 2/2/2 3/3/3 
f 3/3/3 4/4/4 1/1/1 
f 5/5/5 6/6/6 2/2/2 
f 2/2/2 1/1/1 5/5/5 
f 7/7/7 1/1/1 4/4/4 
f 4/4/4 8/8/8 7/7/7 
f 9/9/9 5/5/5 1/1/1 
f 1/1/1 7/7/7 9/9/9 
f 10/10/10 7/7/7 8/8/8 
f 8/8/8 11/11/11 10/10/10 
f 12/12/12 9/9/9 7/7/7 
f 7/7/7 10/10/10 12/12/12 
f 13/13/13 10/10/10 11/11/11 
f 11/11/11 14/14/14 13/13/13 
f 15/15/15 12/12/12 10/10/10 
f 10/10/10 13/13/13 15/15/15 
f 16/1/16 13/2/13 14/3/14 
f 14/3/14 17/4/17 16/1/16 
f 18/5/18 15/6/15 13/2/13 
f 13/2/13 16/1/16 18/5/18 
f 19/7/19 16/1/16 17/4/17 
f 17/4/17 20/8/20 19/7/19 
f 21/9/21 18/5/18 16/1/16 
f 16/1/16 19/7/19 21/9/21 
f 22/10/22 19/7/19 20/8/20 
f 20/8/20 23/11/23 22/10/22 
f 24/12/24 21/9/21 19/7/19 
f 19/7/19 22/10/22 24/12/24 
f 2/13/2 22/10/22 23/11/23 
f 23/11/23 3/14/3 2/13/2 
f 6/15/6 24/12/24 22/10/22 
f 22/10/22 2/13/2 6/15/6 
f 25/16/25 26/17/26 6/6/6 
f 6/6/6 5/5/5 25/16/25 
f 27/18/27 28/19/28 26/17/26 
f 26/17/26 25/16/25 27/18/27 
f 29/20/29 25/16/25 5/5/5 
f 5/5/5 9/9/9 29/20/29 
f 30/21/30 27/18/27 25/16/25 
f 25/16/25 29/20/29 30/21/30 
f 31/22/31 29/20/29 9/9/9 
f 9/9/9 12/12/12 31/22/31 
f 32/23/32 30/21/30 29/20/29 
f 29/20/29 31/22/31 32/23/32 
f 33/24/33 31/22/31 12/12/12 
f 12/12/12 15/15/15 33/24/33 
f 34/25/34 32/23/32 31/22/31 
f 31/22/31 33/24/33 34/25/34 
f 35/16/35 33/17/33 15/6/15 
f 15/6/15 18/5/18 35/16/35 
f 36/18/36 34/19/34 33/17/33 
f 33/17/33 35/16/35 36/18/36 
f 37/20/37 35/16/35 18/5/18 
f 18/5/18 21/9/21 37/20/37 
f 38/21/38 36/18/36 35/16/35 
f 35/16/35 37/20/37 38/21/38 
f 39/22/39 37/20/37 21/9/21 
f 21/9/21 24/12/24 39/22/39 
f 40/23/40 38/21/38 37/20/37 
f 37/20/37 39/22/39 40/23/40 
f 26/24/26 39/22/39 24/12/24 
f 24/12/24 6/15/6 26/24/26 
f 28/25/28 40/23/40 39/22/39 
f 39/22/39 26/24/26 28/25/28 
f 41/26/41 42/27/42 28/19/28 
f 28/19/28 27/18/27 41/26/41 
f 43/28/43 44/29/44 42/27/42 
f 42/27/42 41/26/41 43/28/43 
f 45/30/45 41/26/41 27/18/27 
f 27/18/27 30/21/30 45/30/45 
f 46/31/46 43/28/43 41/26/41 
f 41/26/41 45/30/45 46/31/46 
f 47/32/47 45/30/45 30/21/30 
f 30/21/30 32/23/32 47/32/47 
f 48/33/48 46/31/46 45/30/45 
f 45/30/45 47/32/47 48/33/48 
f 49/34/49 47/32/47 32/23/32 
f 32/23/32 34/25/34 49/34/49 
f 50/35/50 48/33/48 47/32/47 
f 47/32/47 49/34/49 50/35/50 
f 51/26/51 49/27/49 34/19/34 
f 34/19/34 36/18/36 51/26/51 
f 52/28/52 50/29/50 49/27/49 
f 49/27/49 51/26/51 52/28/52 
f 53/30/53 51/26/51 36/18/36 
f 36/18/36 38/21/38 53/30/53 
f 54/31/54 52/28/52 51/26/51 
f 51/26/51 53/30/53 54/31/54 
f 55/32/55 53/30/53 38/21/38 
f 38/21/38 40/23/40 55/32/55 
f 56/33/56 54/31/54 53/30/53 
f 53/30/53 55/32/55 56/33/56 
f 42/34/42 55/32/55 40/23/40 
f 40/23/40 28/25/28 42/34/42 
f 44/35/44 56/33/56 55/32/55 
f 55/32/55 42/34/42 44/35/44 
f 57/36/57 58/37/58 44/29/44 
f 44/29/44 43/28/43 57/36/57 
f 58/37/58 57/36/57 59/38/59 
f 60/39/60 57/36/57 43/28/43 
f 43/28/43 46/31/46 60/39/60 
f 57/36/57 60/39/60 59/40/59 
f 61/41/61 60/39/60 46/31/46 
f 46/31/46 48/33/48 61/41/61 
f 60/39/60 61/41/61 59/42/59 
f 62/43/62 61/41/61 48/33/48 
f 48/33/48 50/35/50 62/43/62 
f 61/41/61 62/43/62 59/44/59 
f 63/36/63 62/37/62 50/29/50 
f 50/29/50 52/28/52 63/36/63 
f 62/37/62 63/36/63 59/38/59 
f 64/39/64 63/36/63 52/28/52 
f 52/28/52 54/31/54 64/39/64 
f 63/36/63 64/39/64 59/40/59 
f 65/41/65 64/39/64 54/31/54 
f 54/31/54 56/33/56 65/41/65 
f 64/39/64 65/41/65 59/42/59 
f 58/43/58 65/41/65 56/33/56 
f 56/33/56 44/35/44 58/43/58 
f 65/41/65 58/43/58 59/44/59 
f 66/45/66 67/46/67 68/21/68 
f 68/21/68 69/47/69 66/45/66 
f 70/48/70 71/49/71 67/46/67 
f 67/46/67 66/45/66 70/48/70 
f 72/50/72 66/45/66 69/47/69 
f 69/47/69 73/23/73 72/50/72 
f 74/51/74 70/48/70 66/45/66 
f 66/45/66 72/50/72 74/51/74 
f 75/52/75 72/50/72 73/23/73 
f 73/23/73 76/53/76 75/52/75 
f 77/54/77 74/51/74 72/50/72 
f 72/50/72 75/52/75 77/54/77 
f 67/55/67 75/52/75 76/53/76 
f 76/53/76 68/25/68 67/55/67 
f 71/56/71 77/54/77 75/52/75 
f 75/52/75 67/55/67 71/56/71 
f 78/57/78 79/58/79 71/49/71 
f 71/49/71 70/48/70 78/57/78 
f 80/59/80 34/40/81 79/58/79 
f 79/58/79 78/57/78 80/59/80 
f 81/60/82 78/57/78 70/48/70 
f 70/48/70 74/51/74 81/60/82 
f 82/42/83 80/59/80 78/57/78 
f 78/57/78 81/60/82 82/42/83 
f 83/61/84 81/60/82 74/51/74 
f 74/51/74 77/54/77 83/61/84 
f 84/62/85 82/42/83 81/60/82 
f 81/60/82 83/61/84 84/62/85 
f 79/63/79 83/61/84 77/54/77 
f 77/54/77 71/56/71 79/63/79 
f 34/44/81 84/62/85 83/61/84 
f 83/61/84 79/63/79 34/44/81 
f 85/64/86 86/65/87 87/42/88 
f 87/42/88 88/59/89 85/64/86 
f 89/66/90 90/67/91 86/65/87 
f 86/65/87 85/64/86 89/66/90 
f 91/68/92 85/64/86 88/59/89 
f 88/59/89 92/40/93 91/68/92 
f 93/69/94 89/66/90 85/64/86 
f 85/64/86 91/68/92 93/69/94 
f 94/70/95 91/71/92 92/44/93 
f 92/44/93 95/62/96 94/70/95 
f 96/72/97 93/73/94 91/71/92 
f 91/71/92 94/70/95 96/72/97 
f 86/65/87 94/70/95 95/62/96 
f 95/62/96 87/42/88 86/65/87 
f 90/67/91 96/72/97 94/70/95 
f 94/70/95 86/65/87 90/67/91 
f 97/74/98 98/75/99 90/67/91 
f 90/67/91 89/66/90 97/74/98 
f 99/47/100 100/23/101 98/75/99 
f 98/75/99 97/74/98 99/47/100 
f 101/76/102 97/74/98 89/66/90 
f 89/66/90 93/69/94 101/76/102 
f 102/21/103 99/47/100 97/74/98 
f 97/74/98 101/76/102 102/21/103 
f 103/77/104 101/78/102 93/73/94 
f 93/73/94 96/72/97 103/77/104 
f 104/53/105 102/25/103 101/78/102 
f 101/78/102 103/77/104 104/53/105 
f 98/75/99 103/77/104 96/72/97 
f 96/72/97 90/67/91 98/75/99 
f 100/23/101 104/53/105 103/77/104 
f 103/77/104 98/75/99 100/23/101 
f 105/48/106 106/49/107 107/21/108 
f 108/59/109 109/40/110 106/49/107 
f 106/49/107 105/48/106 108/59/109 
f 110/51/111 105/48/106 107/47/108 
f 111/42/112 108/59/109 105/48/106 
f 105/48/106 110/51/111 111/42/112 
f 112/54/113 110/51/111 107/23/108 
f 113/62/114 111/42/112 110/51/111 
f 110/51/111 112/54/113 113/62/114 
f 114/56/115 112/54/113 107/53/108 
f 115/44/116 113/62/114 112/54/113 
f 112/54/113 114/56/115 115/44/116 
f 116/48/117 114/49/115 107/21/108 
f 117/59/118 115/40/116 114/49/115 
f 114/49/115 116/48/117 117/59/118 
f 118/51/119 116/48/117 107/47/108 
f 119/42/120 117/59/118 116/48/117 
f 116/48/117 118/51/119 119/42/120 
f 120/54/121 118/51/119 107/23/108 
f 121/62/122 119/42/120 118/51/119 
f 118/51/119 120/54/121 121/62/122 
f 106/56/107 120/54/121 107/53/108 
f 109/44/110 121/62/122 120/54/121 
f 120/54/121 106/56/107 109/44/110 
f 122/48/123 123/49/124 109/21/110 
f 109/21/110 108/47/109 122/48/123 
f 124/59/125 125/40/126 123/49/124 
f 123/49/124 122/48/123 124/59/125 
f 126/51/127 122/48/123 108/47/109 
f 108/47/109 111/23/112 126/51/127 
f 127/42/128 124/59/125 122/48/123 
f 122/48/123 126/51/127 127/42/128 
f 128/54/129 126/51/127 111/23/112 
f 111/23/112 113/53/114 128/54/129 
f 129/62/130 127/42/128 126/51/127 
f 126/51/127 128/54/129 129/62/130 
f 130/56/131 128/54/129 113/53/114 
f 113/53/114 115/25/116 130/56/131 
f 131/44/132 129/62/130 128/54/129 
f 128/54/129 130/56/131 131/44/132 
f 132/48/133 130/49/131 115/21/116 
f 115/21/116 117/47/118 132/48/133 
f 133/59/134 131/40/132 130/49/131 
f 130/49/131 132/48/133 133/59/134 
f 134/51/135 132/48/133 117/47/118 
f 117/47/118 119/23/120 134/51/135 
f 135/42/136 133/59/134 132/48/133 
f 132/48/133 134/51/135 135/42/136 
f 136/54/137 134/51/135 119/23/120 
f 119/23/120 121/53/122 136/54/137 
f 137/62/138 135/42/136 134/51/135 
f 134/51/135 136/54/137 137/62/138 
f 123/56/124 136/54/137 121/53/122 
f 121/53/122 109/25/110 123/56/124 
f 125/44/126 137/62/138 136/54/137 
f 136/54/137 123/56/124 125/44/126 
# 0 polygons - 240 triangles

